# xmcd
#
# Track frame offsets:
#	150
#	38960
#	62032
#	82104
#	123625
#	148628
#	172349
#	205833
#	227294
#	247799
#
# Disc length: 3562 seconds
#
# Revision: 1
# Processed by: cddbd v1.5.2PL0 Copyright (c) Steve Scherf et al.
# Submitted via: EZCDAudioConverter 8.0.2.1
#
DISCID=8a0de80a
DTITLE=Mạnh Quỳnh - Say
DYEAR=2005
DGENRE=
TTITLE0=Tân cổ. Hình bóng quê nhà
TTITLE1=Lý phụ tình
TTITLE2=Điên
TTITLE3=Vọng cổ. Lòng dạ đàn bà
TTITLE4=Màu tím Pensee
TTITLE5=Giã biệt trường xưa
TTITLE6=Vọng cổ. Say
TTITLE7=Tình dại khờ
TTITLE8=Em còn tuổi 15
TTITLE9=Tình đôi ta chỉ thế thôi
EXTD=
EXTT0=
EXTT1=
EXTT2=
EXTT3=
EXTT4=
EXTT5=
EXTT6=
EXTT7=
EXTT8=
EXTT9=
PLAYORDER=
